<svg viewBox="0 0 190.38 150.19" xmlns="http://www.w3.org/2000/svg">
<path d="m118.42 107.45 41.86-1.88c8.03-.33 12.1-5.51 12.1-15.39 0-10.77-4.75-16.7-13.37-16.7-1.14 0-2.34.1-3.57.31l-35.97 8.39c-.46.11-.93.16-1.39.16-1.84 0-3.56-.84-4.72-2.31-1.15-1.45-1.56-3.32-1.13-5.13l13.17-55.18c.89-5.48.12-9.69-2.29-12.51-2.51-2.95-6.87-4.45-12.94-4.45-10.34 0-16.22 4.3-16.55 12.1l-1.49 46.15c-.06 1.79-1.51 3.2-3.31 3.21-1.79 0-3.25-1.4-3.31-3.2l-1.62-46.15c-.33-8.03-5.51-12.1-15.39-12.1-6.37 0-11.18 1.72-13.93 4.96-2.47 2.92-3.3 6.95-2.46 11.99l8.93 45.61c1.37 8.07 5.97 11.83 14.49 11.83s15 6.36 15.61 14.52l-.15 4.72c-.07.96-.1 1.98-.1 3.06v21.99c0 9.08 1.98 15.05 11.83 16.72l52.68 8.93c1.47.24 2.86.36 4.14.36 8.51 0 12.82-5.24 12.82-15.59s-4.3-16.22-12.1-16.55l-41.86-1.88c-1.6-.07-2.86-1.38-2.86-2.99s1.26-2.92 2.86-2.99h.02z"/>
<path d="m74.03 137.29c9.92-1.68 11.92-7.69 11.92-16.84v-22.15c0-9.15-1.99-15.16-11.92-16.84l-53.56-8.99c-1.48-.24-2.88-.36-4.17-.36-8.57 0-12.91 5.28-12.91 15.7s4.33 16.34 12.19 16.67l45.53 2.02v5.76l-45.53 2.02c-8.09.34-12.19 5.55-12.19 15.5 0 10.85 4.78 16.82 13.46 16.82 1.14 0 2.36-.11 3.62-.32z"/>
<path d="m138.98 40.34c-4.41 5.31-3.52 10.99 2.11 16.68 5.75 5.8 11.3 6.64 16.77 2.39 2.83-2.34 3.9-6.45 3.66-10.43l1.53-.11c.32 3.44 1.31 7.14 3.78 9.63 5.16 5.21 11.56 3.57 15.61-.44s5.86-10.5.7-15.71c-2.46-2.49-6.16-3.52-9.49-3.97l.13-1.53c3.88.38 8.12-.53 10.47-3.56 4.31-5.21 3.52-10.99-2.23-16.8-5.63-5.69-11.41-6.53-16.66-2.28-2.94 2.44-4.01 6.55-3.55 10.55h-1.65c-.42-3.34-1.31-7.15-3.78-9.64-5.28-5.33-11.68-3.69-15.93.53-4.16 4.12-5.64 10.51-.6 15.61 2.58 2.61 6.28 3.64 9.71 3.99v1.65c-4.11-.4-8.23.63-10.59 3.44z"/>
</svg>