<svg viewBox="0 0 725 119" xmlns="http://www.w3.org/2000/svg">
<path d="M53.75,42.417c-0.583,-1.958 -1.458,-3.792 -2.542,-5.375c-4.833,-6.958 -12.958,-10.5 -24.083,-10.5c-3.458,0 -7.417,0.417 -11.792,1.167c-5.083,0.833 -8.708,2.333 -10.792,4.375c-1.583,1.583 -2.375,3.167 -2.375,4.667c0,0.333 0.083,0.875 0.25,1.625c0.5,1.875 1.417,3.833 2.708,5.875c1.708,3.042 3.042,3.958 3.792,4.208c0.875,0.208 1.167,0.25 1.25,0.25c0.583,0 1.708,-0.167 3.75,-1.042c1.792,-0.75 3,-1.25 3.542,-1.417c1.75,-0.542 3.875,-0.833 6.25,-0.833c3.167,0 6.167,0.458 8.958,1.417c2.875,1.167 3.5,3.125 3.5,4.542c0,1.875 -0.958,3.25 -2.75,4c-0.333,0.167 -0.792,0.208 -1.583,0.208c-1.125,0 -2.5,-0.167 -4.083,-0.5c-1.458,-0.292 -2.708,-0.458 -3.583,-0.458c-1.458,0 -2.792,0.083 -4,0.25c-5.875,0.667 -10.75,3 -14.5,6.958c-3.75,3.917 -5.667,8.667 -5.667,14.167c0,1.875 0.25,3.833 0.75,5.875c1.25,5.208 4.292,9.292 9,12.167c0.792,0.417 1.542,0.833 2.25,1.167c0.708,0.333 1.542,0.583 2.5,0.792c1.083,0.208 1.917,0.417 2.458,0.542c0.375,0.083 1.125,0.208 2.708,0.292c1.292,0.083 2.125,0.125 2.542,0.125c0.417,0 5.333,0.125 5.5,0.125c1.167,0 3.333,0 6.542,-0.083c3.25,-0.042 5.417,-0.083 6.583,-0.083c6.375,0 10.583,-1.375 12.5,-4.125c0.292,-0.458 0.542,-0.917 0.667,-1.417c0.167,-0.5 0.25,-0.958 0.292,-1.292c0.042,-0.375 0.083,-0.917 0.083,-1.625c0,-0.833 0.042,-1.5 0.125,-1.875c0.25,-3.167 0.417,-6.083 0.458,-8.708c0.042,-2.667 0.083,-5.667 0.083,-9c0,-3.333 0.042,-6.333 0.125,-8.875l0,-6.625c-0.083,-2.792 -0.208,-4.875 -0.333,-6.167c-0.125,-1.25 -0.5,-2.917 -1.083,-4.958l0,0.167Zm-17.792,35.708c-0.833,2.25 -3.458,3.375 -7.75,3.375c-4.917,0 -7.833,-1.042 -8.75,-2.917c-0.542,-0.542 -0.792,-1.625 -0.792,-3.583c0,-1.625 1,-3.208 3.125,-4.792c1.917,-1.042 4.375,-1.583 7.333,-1.583c6.125,0 7.417,2.5 7.417,4.625c0,3.375 -0.333,4.417 -0.583,4.833l0,0.042Z" />
<path d="M100.792,0.708c-1,-0.458 -2.292,-0.708 -3.917,-0.708c-3.583,0 -8.667,1.208 -15.125,3.542c-7.417,3 -12.25,7.125 -14.375,12.25c-2.25,5 -3.542,9.958 -3.917,14.708c-0.083,0.875 -0.167,2.458 -0.25,4.792c-0.083,2.333 -0.125,3.917 -0.125,4.792c0,3.25 0.042,5.708 0.125,7.375c0.083,1.625 0.125,13.292 0.125,35.625c0,10.417 2.042,12.667 3.25,13.083c1.75,0.583 4.5,0.875 8.208,0.875c3.708,0 6.542,-0.208 8.417,-0.625c0.583,-0.125 1.083,-0.375 1.5,-0.75c0.458,-0.375 0.792,-0.75 1.042,-1.083c0.125,-0.167 0.292,-0.583 0.458,-1.5c0.125,-0.792 0.167,-1.333 0.167,-1.667l0,-3.833c0,-2.083 -0.167,-4.583 -0.542,-7.458c-0.375,-2.958 -0.542,-5.5 -0.542,-7.542l0,-7.292c0,-0.25 0,-0.583 -0.042,-1.042c-0.042,-0.542 -0.083,-0.917 -0.083,-1.208c0,-0.417 0.125,-0.833 0.333,-1.375c0.25,-0.542 0.625,-1 1.125,-1.375c0.458,-0.333 1.417,-0.667 4.333,-0.667c0.625,0 1.625,0.042 3,0.125c1.292,0.083 2.25,0.125 2.875,0.125c1.583,0 2,-0.375 2.083,-0.458c0.125,-0.167 0.417,-0.708 0.333,-2.333c0,-0.958 -0.042,-2.458 -0.125,-4.542c-0.083,-2.083 -0.125,-3.667 -0.125,-4.75c0,-0.542 0.042,-1.542 0.125,-3.042c0.083,-1.417 0.125,-2.5 0.083,-3.292c0,-0.625 -0.292,-1.208 -0.75,-1.833c-0.417,-0.5 -1.042,-0.792 -2,-0.792c-0.5,0 -1.417,0.042 -2.708,0.125c-0.667,0.042 -1.292,0.083 -1.875,0.083c-0.583,0 -1.083,0 -1.542,-0.083c-0.875,-0.083 -1.833,-0.292 -2.875,-0.625c-2.167,-0.958 -3.125,-3.083 -2.875,-6.292c0.25,-3 1.125,-5.25 2.583,-6.625c2.625,-2.542 6.167,-3.958 10.583,-4.25c0.583,0 1.375,0.083 2.458,0.292c0.333,0.042 0.625,0.083 0.875,0.083l0.333,0c0,0 0.25,-0.375 0.417,-1.5c0.708,-3.292 1.083,-6.583 1.208,-9.958c0.333,-1.583 0.375,-3.458 0.125,-5.542c-0.25,-1.917 -1.042,-3.208 -2.417,-3.917l0,0.083l0.042,0Z" />
<path d="M159.583,90.292l-0,-5.5c0,-1.708 -0.125,-3.375 -0.375,-4.958c-0.083,-0.75 -0.208,-1.292 -0.458,-1.667c-0.208,-0.292 -0.5,-0.542 -0.917,-0.708c-0.708,-0.25 -1.042,-0.333 -1.208,-0.375l-0.583,0c-0.333,0 -2.917,0.083 -3.167,0.083c-1.333,0 -3,-0.375 -4.833,-1.125c-5.583,-2.083 -8.417,-7.167 -8.417,-15.042c0,-8.833 0.208,-9.25 0.375,-9.625c0.417,-0.708 1.083,-1.125 1.833,-1.125c0.542,0 1.458,0.083 2.667,0.292c1.083,0.167 1.917,0.25 2.5,0.25c3.458,0 5.792,-0.75 6.833,-2.208c1.125,-1.542 1.667,-4.25 1.667,-8.042c0,-7.5 -0.958,-9.542 -1.5,-10.083c-0.542,-0.5 -2.25,-1.333 -8.042,-1.333l-3.875,0c-0.583,0 -1.417,-0.208 -2.208,-1.417c-0.125,-0.375 -0.167,-0.875 -0.167,-1.625c0,-0.375 0,-0.917 0.125,-1.667c0.083,-0.625 0.125,-1.083 0.125,-1.417l0,-13.125c0,-1.917 -0.5,-3.375 -1.5,-4.292c-1.042,-0.958 -2.125,-1.542 -3.208,-1.708c-1.25,-0.167 -3.042,-0.25 -5.375,-0.25c-0.458,0 -1.167,-0.042 -2.083,-0.125c-0.833,-0.083 -1.542,-0.125 -2.042,-0.125c-4.042,0 -6.458,0.833 -7.292,2.583c-0.375,0.708 -0.667,1.667 -0.833,2.875c-0.167,1.25 -0.25,2.417 -0.208,3.375c0.042,1.042 0.083,2.292 0.125,3.875c0.042,1.542 0.083,2.667 0.083,3.292c0,0.708 0,1.792 -0.083,3.292c-0.042,1.458 -0.083,2.542 -0.083,3.208c0,1.208 -0.375,2.083 -1.083,2.5c-0.458,0.292 -1.125,0.417 -2.25,0.417c-0.458,0 -1.083,-0.042 -1.833,-0.125c-0.667,-0.083 -1.167,-0.125 -1.5,-0.125c-0.667,0 -1.208,0.125 -1.708,0.375c-0.458,0.208 -0.792,0.583 -1.083,1.083c-0.333,0.625 -0.583,1.208 -0.792,1.792c-0.208,0.542 -0.292,1.25 -0.333,2.167c-0.042,1.042 -0.083,1.875 -0.125,2.5c-0.042,0.583 -0.042,1.375 0,2.333c0.042,1.042 0.083,1.708 0.083,1.958c0,6.25 1.292,8.375 2.333,9.042c0,0 0.375,0.125 1.917,0.125c1.375,0 2.625,0.083 3.792,0.292c2.125,0.333 2.417,1.542 2.417,2.208c0,0.542 0,1.417 -0.083,2.667c-0.042,1.208 -0.083,2.083 -0.083,2.625l0,5.958c0,5.042 0.417,9.458 1.167,13.167c0.75,3.625 2.375,7.167 4.75,10.5c4.833,6.958 12.542,10.5 22.875,10.5c0.792,0 2,0 3.542,0.083c1.542,0.042 2.708,0.083 3.5,0.083c3.458,0 4.583,-0.417 5.042,-0.708c0.417,-0.208 0.708,-0.458 0.917,-0.75c0.208,-0.333 0.375,-0.75 0.458,-1.25c0.083,-0.667 0.167,-1.167 0.208,-1.583l0,-1.708c0,-0.875 -0.083,-1.417 -0.083,-1.708l0.083,0Z" />
<path d="M219.333,81.25c-0.375,-1.375 -0.958,-2.417 -1.833,-3.208c-0.833,-0.75 -1.958,-1.125 -3.25,-1.125c-2.333,0.167 -4.583,0.583 -6.75,1.167c-2.792,0.75 -5.833,1.125 -9.083,1.125c-0.625,0 -1.292,0 -1.917,-0.042c-4.167,0 -7.083,-0.833 -9,-2.542c-1.625,-1.625 -2.625,-3.25 -3.042,-4.792l-0.083,-0.292l0.792,-2l0.417,-0.125l1.667,-0.417c0.417,0 0.875,-0.042 1.375,-0.042c1,0 2.208,0.042 3.625,0.167c2.042,0.167 3.5,0.25 4.333,0.25c8.875,-0.167 15.167,-1.667 18.625,-4.417c1.042,-0.958 1.917,-2.125 2.5,-3.417c0.625,-1.333 1.042,-3 1.333,-5.042c0.25,-2.083 0.417,-3.542 0.458,-4.375c0,-0.833 0.125,-2.542 0.208,-5.083c0.083,-2.75 -0.625,-5.542 -2.083,-8.292c-1.458,-2.792 -3.417,-5.042 -5.708,-6.708c-3.75,-2.375 -9.5,-3.833 -17.042,-4.375l-1.417,0c-4.833,0 -9.5,0.833 -13.833,2.417c-4.708,1.75 -8.417,4.583 -11.042,8.5c-2.375,3.458 -3.542,8.625 -3.542,15.417c0,0.708 0.083,2.125 0.25,4.292c0.167,2.292 0.208,3.917 0.125,5c0,7.667 0.875,14.125 2.625,19.25c1,3.5 3.083,6.417 6.208,8.667c3.208,2.292 6.667,3.917 10.25,4.75c3.292,0.792 6.75,1.167 10.25,1.167l1.042,0c5.125,-0.167 9.583,-0.708 13.208,-1.583c2.083,-0.542 3.458,-0.875 4.125,-1.125c0.667,-0.208 1.708,-0.625 3.125,-1.25c1.333,-0.542 2.25,-1.167 2.792,-1.792c0.542,-0.625 0.917,-1.458 1.125,-2.125c0,-1.667 0,-3.042 -0.125,-4.167c-0.083,-1.083 -0.333,-2.417 -0.708,-3.875l-0,0.042Zm-32.833,-36.625c1.792,-1.417 3.667,-2.167 5.667,-2.167l0.708,0c6.917,0.292 10.792,2.583 11.5,7.042c-0.083,2.625 -1.458,4.583 -3.917,5.667c-2.292,0.958 -4.833,1.458 -7.625,1.458c-5.958,-0.208 -9,-2.208 -9.125,-5.875c-0.208,-2.417 0.75,-4.5 2.792,-6.167l-0,0.042Z" />
<path d="M271.792,31.208c0,-1.708 -0.708,-2.708 -2.208,-3.167c-0.958,-0.292 -1.917,-0.417 -2.875,-0.417c-0.833,0 -1.667,0.125 -2.542,0.292c-1.958,0.458 -3.708,1.083 -5.292,1.875c-1.083,0.5 -2.792,1.75 -5.167,3.792c-0.917,0.625 -1.458,0.875 -1.958,0.875l-0.542,0l-0.25,-0.333c-0.292,-0.292 -0.542,-0.792 -0.792,-2.542c-0.125,-1.5 -0.583,-2.458 -1.292,-2.833c-1.292,-0.583 -3.208,-0.833 -5.667,-0.833c-1.25,0.083 -3.083,0.125 -5.5,0.125l-3.917,0c-0.5,0 -1.208,0.083 -2.125,0.292c-1,0.208 -1.458,0.542 -1.667,0.75c-0.375,0.375 -0.708,0.875 -1,1.583c-0.292,0.667 -0.458,1.583 -0.458,2.667l0,19.792c0,15.75 0.083,27.417 0.25,34.75l0,2.917c0,1.292 0,2.125 0.083,2.583c0,0.417 0.167,0.958 0.375,1.708c0.167,0.542 0.375,0.875 0.667,1.042c0.5,0.25 1.208,0.5 2.125,0.792c0.875,0.292 2,0.417 3.292,0.417c0.167,0 1.292,0.083 3.375,0.208c1.5,0.083 2.667,0.167 3.458,0.167l0.667,0c0.75,-0.042 1.833,-0.208 3.167,-0.5c1.25,-0.292 2.292,-0.75 3.083,-1.333c0.542,-0.417 1.792,-2.583 1.792,-13.208c0,-0.875 -0.083,-2.875 -0.25,-6.042c-0.167,-3.292 -0.125,-5.542 0.125,-6.833c0.083,-0.5 0.167,-1.417 0.25,-2.708c0.083,-1.375 0.167,-2.375 0.25,-3.042c0.083,-0.708 0.292,-1.583 0.542,-2.625c0.292,-1.083 0.667,-2.083 1.125,-2.875c0.5,-0.958 1.333,-2.167 2.625,-3.625c2.292,-2.667 5.75,-4.208 10.375,-4.583c0.333,0 0.958,0 1.875,-0.083c0.917,-0.042 1.625,-0.083 2.167,-0.125c0.333,0 0.75,-0.208 1.125,-0.5c0.292,-0.208 0.417,-0.5 0.417,-0.958c0.083,-1.917 0.125,-5.167 0.125,-9.667c0,-0.542 0.042,-1.333 0.125,-2.333c0.083,-0.917 0.083,-1.75 0,-2.583l0,-2.875l0.042,0Z" />
<path d="M328.667,78.042c-0.458,-0.458 -0.708,-0.542 -0.792,-0.542c-0.083,0 -0.292,-0.042 -0.875,-0.042l-0.833,0c-0.958,0.042 -1.708,0.083 -2.167,0.083c-2.417,-0.083 -4.5,-0.542 -6.25,-1.333c-1.75,-0.792 -3,-1.542 -3.875,-2.333c-0.958,-0.833 -1.625,-2.167 -2.083,-4.042c-0.417,-1.708 -0.667,-3 -0.75,-3.75c-0.083,-0.792 -0.083,-2.333 0,-4.667c0.083,-2.25 0.125,-3.625 0.125,-4.125c0,-4.375 0.125,-4.708 0.167,-4.875c0.167,-0.5 0.667,-1.375 2.333,-1.375c0.292,0 0.583,0 0.833,0.042c1.125,0.042 2.167,0.083 3.083,0.083c1.792,0 3.167,-0.125 3.958,-0.292c1.125,-0.458 1.958,-1 2.375,-1.667c0.958,-1.333 1.5,-3.292 1.625,-5.833c0.125,-2.625 0.083,-4.833 -0.208,-6.667c0,-3.708 -0.75,-5.125 -1.417,-5.667c-0.542,-0.5 -1.333,-0.792 -2.375,-0.917c-0.667,-0.083 -1.458,-0.125 -2.25,-0.125c-0.542,0 -1.167,0 -1.75,0.042c-1.5,0.083 -2.458,0.125 -3.083,0.125l-0.167,0c-0.583,-0.083 -2.417,-0.333 -2.917,-1.958l0,-8.375c0,-1.083 0,-2.75 0.083,-5.042c0.042,-2.292 0.083,-3.917 0.083,-4.917c0.083,-2.667 -0.708,-4.375 -2.375,-5.292c-1.833,-1 -4.333,-1.5 -7.333,-1.5c-2.5,0 -4.583,0.167 -6.208,0.5c-2.5,0.458 -4.042,1.417 -4.667,2.792c-0.375,0.833 -0.833,2.75 -0.833,7.125c0.167,3.042 0.167,6.208 0,9.333l0,3.958c0,1.5 -0.458,2.5 -1.417,3c-0.25,0.083 -0.542,0.167 -5.583,0.167c-1.25,0 -2.083,0.5 -2.625,1.625c-0.333,0.625 -0.875,2.833 -0.958,10.625c0,7.292 1.042,7.917 1.125,7.958c1,0.542 2.625,0.833 4.75,0.833c3.708,0 4.5,1.5 4.5,2.75c0,0.708 0,1.958 -0.083,3.75c-0.042,1.75 -0.083,3 -0.083,3.708c0,4.458 0.083,7.833 0.208,10.042c0.125,2.125 0.667,4.75 1.542,7.75c0.917,3 2.292,5.917 4.208,8.625c4.667,6.792 11.667,10.25 20.792,10.25l1.042,0c0,0 0.958,0 2.292,0.042c1.333,0.042 2.458,0.083 3.417,0.083c0.958,0 1.917,-0.083 2.958,-0.208c1.208,-0.167 1.708,-0.375 1.875,-0.458c0.708,-0.458 1.042,-0.792 1.125,-1c0.083,-0.208 0.417,-1.5 0.417,-8.583c0,-3.167 -0.125,-5.875 -0.375,-8.125c-0.083,-0.75 -0.25,-1.292 -0.542,-1.583l-0.042,0Z" />
<path d="M386.708,30.542c-4.083,-2.125 -9.5,-3.208 -16.042,-3.208c-0.625,0 -1.625,0.167 -3,0.458c-1.5,0.333 -2.583,0.5 -3.375,0.5c-1.5,0 -2.375,-0.833 -2.375,-2.25c0,-2.125 0.083,-5.25 0.208,-9.333c0.125,-4.042 0.208,-7.125 0.208,-9.25c0,-3.542 -1.458,-5.25 -4.542,-5.333l-14.083,0c-2.875,0 -3.708,0.542 -3.917,0.792c-0.208,0.25 -0.75,1.125 -0.75,4.167c0,0.375 -0.042,0.958 -0.125,1.75c-0.083,0.708 -0.125,1.208 -0.125,1.542c0,3.708 -0.083,9.292 -0.208,16.75c-0.125,7.417 -0.208,13 -0.208,16.708c0,2.042 -0.083,5.042 -0.208,9.042c-0.125,3.958 -0.208,6.917 -0.208,8.875l-0.417,31.042c0,1.5 0.25,2.208 0.5,2.542c0.25,0.375 0.958,0.625 2,0.667c2.875,0.25 5.875,0.375 8.958,0.375c3.667,0 6.375,0.042 8.083,0.125c0.208,0 0.583,0.042 1.167,0.125c0.417,0.083 0.75,0.125 0.958,0.125c0.458,0 1.625,0 1.625,-3.208c0,-0.5 -0.083,-1.333 -0.208,-2.417c-0.125,-1.208 -0.208,-2.083 -0.208,-2.625c0,-3.25 0.125,-8.208 0.333,-14.75c0.208,-6.625 0.333,-11.458 0.333,-14.708c0,-8 3.667,-9.667 6.75,-9.667c1.333,0 2.5,0.292 3.5,0.917c1.25,0.667 2.292,1.5 3.125,2.458c0.833,1 1.417,2.208 1.708,3.583c0.292,1.292 0.458,2.417 0.542,3.375c0.083,0.958 0.125,2.25 0.125,3.875l-0.417,28.125l0,0.917c0,1.292 0.25,2.208 0.708,2.667c0.375,0.333 1.208,0.833 3.083,1.25c0.5,0.125 2.125,0.25 7.083,0.25c0.917,0 2.208,0.042 3.917,0.125c1.667,0.083 2.875,0.125 3.667,0.125c2.25,0 3.333,-1.125 3.458,-3.667c0.708,-14.083 1.042,-22.042 1.042,-23.708c0,-14.667 -0.833,-24.042 -2.458,-27.917c-2.042,-4.833 -5.5,-8.583 -10.333,-11.208l0.125,-0Z" />
<path d="M460.167,38.333c-1.833,-3.667 -4.208,-6.458 -7.167,-8.333c-3.833,-2.375 -8.792,-3.583 -14.792,-3.583c-8.25,0 -15.208,1.958 -20.625,5.875c-5.375,3.833 -8.417,9.875 -9.125,17.958c-0.708,8.708 -1.042,13.667 -1.042,14.792c0,6.958 0.667,12.667 1.958,17c1.25,4.042 3.958,7.667 8.042,10.833c4.083,3.167 8.417,4.958 12.792,5.375c1.125,0.083 2.833,0.125 5.125,0.125c6.375,0 12.042,-1.375 16.958,-4.125c4.792,-2.708 8,-6.875 9.542,-12.458c2.417,-8.708 3.042,-19.375 1.833,-31.792c-0.417,-4.042 -1.583,-7.958 -3.417,-11.708l-0.083,0l-0,0.042Zm-15.167,29.833c-0.5,3.417 -1.042,5.833 -1.708,7.417c-0.5,1.417 -1.458,2.583 -2.833,3.458c-1.333,0.833 -2.792,1.25 -4.25,1.25c-1.792,0 -3.292,-0.375 -4.542,-1.125c-0.625,-0.417 -1.208,-1.042 -1.75,-1.875c-0.542,-0.917 -1,-1.75 -1.333,-2.583c-0.417,-0.875 -0.625,-2.042 -0.75,-3.417c-0.083,-1.292 -0.167,-2.292 -0.208,-3.042c-0.042,-0.792 -0.042,-1.875 0,-3.25c0.042,-1.375 0.083,-2.167 0.083,-2.417c0,-11.167 3.083,-16.833 9.125,-16.833c2.333,0 4.25,1 5.667,2.958c1.292,1.833 2.167,3.75 2.625,5.708c0.417,1.917 0.625,3.917 0.625,5.917c0,1.875 -0.25,4.542 -0.75,7.875l0,-0.042Z" />
<path d="M532.833,32.042c-0.167,-1.167 -0.5,-2.083 -1.083,-2.667c-0.542,-0.583 -1.25,-0.917 -2.167,-0.958c-1.958,-0.083 -4.917,-0.125 -9.083,-0.125l-2.917,-0.25c-0.833,-0.083 -1.583,-0.125 -2.292,-0.125c-0.833,0 -1.5,0.042 -2.125,0.167c-0.875,0.167 -1.458,0.5 -1.792,1.083c-0.125,0.208 -0.333,0.667 -0.417,1.5c-0.083,0.75 -0.125,1.458 -0.125,2.083c0,0.625 0,1.417 0.083,2.333c0.042,0.958 0.083,1.542 0.083,1.833c-0.083,6.833 -0.25,15.375 -0.542,25.583c0,1.875 0,3.167 -0.083,3.917c-0.042,0.75 -0.208,1.792 -0.5,3.125c-0.292,1.5 -0.792,2.5 -1.458,3.125c-0.625,0.542 -1.458,1.083 -2.583,1.542c-1.125,0.5 -2.542,0.75 -4.125,0.75c-3.208,0 -5.417,-1.25 -6.542,-3.708c-1.042,-2.25 -1.542,-5.917 -1.542,-11.125c-0.083,-4.167 0.083,-13.333 0.542,-27.25c0.125,-2.25 -0.208,-2.958 -0.375,-3.125c-0.125,-0.167 -0.667,-0.667 -3.167,-1.25c-1.792,-0.417 -4.042,-0.625 -6.75,-0.625c-1.708,0 -3.625,0.083 -5.792,0.25c-0.167,0 -0.625,0 -1.417,0.083c-0.667,0 -1.125,0.083 -1.292,0.125c-0.208,0.042 -0.583,0.125 -1.208,0.208c-0.458,0.083 -0.625,0.167 -0.625,0.167c0,0 -0.375,0.375 -0.625,0.667c-0.167,0.208 -0.292,0.5 -0.417,0.833c-0.125,0.417 -0.167,0.875 -0.167,1.458c-0.167,6 -0.25,15.417 -0.25,27.958c0,7.708 0.208,13.125 0.667,16.042c1.125,6.458 3.042,11.375 5.792,14.708c2.667,3.25 6.833,5.5 12.333,6.583c1.708,0.333 3.417,0.5 5.083,0.5c2.667,0 5.292,-0.417 7.833,-1.25c1.042,-0.417 2.292,-1.25 3.75,-2.542c2.417,-2.125 2.625,-2.25 2.917,-2.375c0.25,-0.083 0.542,-0.125 0.75,-0.125l0.417,0c0.542,0.167 0.917,0.625 1.083,1.375c0.125,0.458 0.167,0.833 0.167,1.125l0,2.083l0.25,0.583c0,0 0.458,0.25 0.833,0.458c0.833,0.5 2.125,0.75 3.792,0.75c0.458,0 0.917,0 1.458,-0.042l8.042,0c0.208,0 0.667,0 1.333,-0.083c0.875,-0.042 1.083,-0.167 1.125,-0.167c0.292,-0.125 0.708,-0.333 1.292,-0.5c0.458,-0.167 0.625,-0.292 0.667,-0.375l0.708,-1.042c0.208,-0.292 0.333,-0.667 0.375,-1.083c0.083,-0.542 0.125,-1.125 0.125,-1.792c-0.083,-7 -0.125,-15.375 -0.125,-25.083c0,-2.208 0,-6.125 0.125,-11.708c0.083,-5.542 0.083,-9.75 0,-12.583c0,-0.542 0,-1.625 0.125,-3.25c0.083,-1.542 0.125,-2.917 0.083,-4.042c0,-1.125 -0.167,-2.375 -0.333,-3.708l0.083,0l0,-0.042Z" />
<path d="M596.333,48.625c-0.083,-3.458 -0.125,-6.042 -0.125,-7.708c0,-4.292 -1,-7.333 -3,-9c-0.875,-0.708 -3.125,-1.792 -8.75,-2.75c-1.792,-0.333 -3.542,-0.542 -5.167,-0.667c-1.667,-0.083 -3.625,-0.125 -5.875,-0.125c-2.25,0 -4.083,-0.042 -5.417,-0.125l-0.833,0c-4.25,0 -8.708,1.208 -13.292,3.625c-4.875,2.542 -8.375,5.833 -10.5,9.708c-2.667,4.875 -3.917,10.833 -3.75,17.708c0.167,7.958 2.25,14.125 6.125,18.375c2.583,2.958 6.125,5 10.5,6.083c2.75,0.708 5.5,1.042 8.208,1.042c1.667,0 3.375,-0.125 5,-0.375c0.708,-0.125 1.333,-0.208 1.917,-0.208c2.583,0 3.625,1.375 4.042,2.583c0.333,1.083 0.208,2.417 -0.333,4.125c-0.5,1.583 -1.083,2.875 -1.792,4c-2,2.625 -5.083,4 -9.208,4c-2.417,0 -5.292,-0.458 -8.542,-1.417c-0.25,-0.083 -3,-0.833 -3.417,-1c-0.417,-0.125 -0.917,-0.208 -1.5,-0.292c-0.208,0 -0.417,-0.042 -0.625,-0.042c-0.292,0 -0.5,0 -0.75,0.083c-0.375,0.083 -0.708,0.292 -1.042,0.542c-1.333,1.083 -2.5,3.625 -3.458,7.583c-0.917,2.208 -1.208,4.458 -0.917,6.625c0.25,2.042 1.458,3.458 3.667,4.417c4.792,2.167 9.833,3.25 14.917,3.25l1.167,0c3.292,-0.083 6.125,-0.25 8.333,-0.542c2.208,-0.25 4.5,-0.667 6.875,-1.25c2.292,-0.542 4.25,-1.333 5.833,-2.333c1.583,-1 3.167,-2.375 4.667,-4c1.5,-1.667 2.792,-3.708 3.917,-6.083c2.25,-4.625 3.458,-11.875 3.625,-21.5l0,-10.583c-0.167,-7.083 -0.25,-12.417 -0.25,-15.958c0,-1.75 0,-4.375 -0.125,-7.792l-0.125,0Zm-19.792,10.667c-0.375,5.083 -2.5,8.25 -6.333,9.417c-1.083,0.333 -2.125,0.5 -3.083,0.5c-1.25,0 -2.417,-0.292 -3.5,-0.833c-1.958,-1 -3.292,-2.75 -4,-5.292c-1.125,-5.375 -1.042,-9.208 0.208,-11.625c1.125,-2.125 3.458,-3.5 7.083,-4.083c0.792,-0.083 1.5,-0.125 2.208,-0.125c2.333,0 4.083,0.5 5.333,1.583c0.208,0.208 0.583,0.667 1.25,1.583c0.958,2.125 1.25,5 0.875,8.792l0,0.083l-0.042,0Z" />
<path d="M654,30.542c-4.083,-2.125 -9.5,-3.208 -16.042,-3.208c-0.625,0 -1.625,0.167 -3,0.458c-1.5,0.333 -2.583,0.5 -3.375,0.5c-1.5,0 -2.375,-0.833 -2.375,-2.25c0,-2.125 0.083,-5.25 0.208,-9.333c0.125,-4.042 0.208,-7.125 0.208,-9.25c0,-3.542 -1.458,-5.25 -4.542,-5.333l-14.083,0c-2.875,0 -3.708,0.542 -3.917,0.792c-0.208,0.25 -0.75,1.125 -0.75,4.167c0,0.375 0,0.958 -0.125,1.75c-0.083,0.708 -0.125,1.208 -0.125,1.542c0,3.708 -0.083,9.292 -0.208,16.75c-0.125,7.417 -0.208,13 -0.208,16.708c0,2.042 -0.083,5.042 -0.208,9.042c-0.125,3.958 -0.208,6.917 -0.208,8.875l-0.417,31.042c0,1.5 0.25,2.208 0.5,2.542c0.25,0.375 0.958,0.625 2,0.667c2.875,0.25 5.875,0.375 8.958,0.375c3.667,0 6.375,0.042 8.083,0.125c0.208,0 0.583,0.042 1.167,0.125c0.417,0.083 0.75,0.125 0.958,0.125c0.458,0 1.625,0 1.625,-3.208c0,-0.5 -0.083,-1.333 -0.208,-2.417c-0.125,-1.208 -0.208,-2.083 -0.208,-2.625c0,-3.25 0.125,-8.208 0.333,-14.75c0.208,-6.625 0.333,-11.458 0.333,-14.708c0,-8 3.667,-9.667 6.75,-9.667c1.333,0 2.5,0.292 3.5,0.917c1.25,0.667 2.292,1.5 3.125,2.458c0.833,1 1.417,2.208 1.708,3.583c0.292,1.292 0.458,2.417 0.542,3.375c0.083,0.958 0.125,2.25 0.125,3.875l-0.417,28.125l0,0.917c0,1.292 0.25,2.208 0.708,2.667c0.375,0.333 1.208,0.833 3.083,1.25c0.5,0.125 2.125,0.25 7.083,0.25c0.917,0 2.208,0.042 3.917,0.125c1.667,0.083 2.875,0.125 3.667,0.125c2.25,0 3.333,-1.125 3.458,-3.667c0.708,-14.083 1.042,-22.042 1.042,-23.708c0,-14.667 -0.833,-24.042 -2.458,-27.917c-2.042,-4.833 -5.5,-8.583 -10.333,-11.208l0.125,-0Z" />
<path d="M724.292,92.042c0,-1.083 -0.083,-1.75 -0.083,-2.042c0,-2.083 0,-3.667 -0.125,-4.583c-0.083,-0.458 -0.208,-1.375 -0.292,-2.708c-0.083,-1.208 -0.208,-2.167 -0.375,-2.917c-0.083,-0.5 -0.208,-0.875 -0.458,-1.208c-0.208,-0.292 -0.5,-0.5 -0.958,-0.667c-0.667,-0.25 -1.083,-0.333 -1.292,-0.333c-0.333,-0.042 -3.208,-0.333 -3.25,-0.333c-0.375,0 -0.75,0.042 -1.083,0.042c-3.583,0 -6.542,-1.75 -8.833,-5.167c-2.458,-3.667 -3.458,-7.542 -3,-11.458c0,-0.375 0,-1.208 0.125,-2.5c0.083,-1.208 0.083,-2.167 0,-2.917c0,-1.167 0,-2.083 -0.125,-2.667c-0.25,-1.875 0.583,-3.167 2.5,-3.667c0.75,0 1.75,0.083 2.875,0.25l5.917,-0.333c2.292,-1 3.417,-4.208 3.417,-9.458c-0.083,-1.292 -0.083,-2.542 0,-3.708c0.083,-1.042 0,-2.208 -0.25,-3.458c-0.25,-1.167 -0.667,-2.167 -1.167,-2.792c-0.292,-0.292 -1.25,-0.75 -4.042,-0.958c-0.708,0 -1.708,0.083 -3.083,0.208c-1.375,0.125 -2.417,0.208 -3.042,0.208l-0.458,0c-0.917,0 -1.667,-0.458 -2.083,-1.333c-0.375,-0.792 -0.542,-1.625 -0.417,-2.375c-0.083,-1.958 -0.083,-4.917 0.083,-9.042c0.125,-4 0.208,-6.708 0.208,-8.208c0.125,-1.833 -0.458,-2.958 -1.917,-3.625c-1.5,-0.667 -3.292,-1 -5.333,-1l-0.75,0c-0.375,0 -1.208,0 -2.583,-0.125c-0.625,-0.042 -1.208,-0.083 -1.667,-0.083c-0.417,0 -0.792,0 -1.208,0.083c-1.417,0 -2.542,0.083 -3.417,0.25c-1.542,0.083 -2.625,0.708 -3.375,2c-0.792,1.333 -0.958,2.792 -0.542,4.667l0,15.125c0,1.875 -0.917,2.75 -1.667,3.167l-0.208,0.125l-5.917,0.125c-1.083,0.208 -1.875,0.708 -2.417,1.542c-0.583,0.875 -0.875,1.833 -0.917,2.917c0,1.25 -0.083,2.5 -0.083,3.875l0,3.667c0,3.583 0,5 0.125,5.542c1.292,2.083 3.667,3.083 7.292,3.125l0.375,0c1.25,0 2.167,0.542 2.667,1.583c0.417,0.958 0.542,2.083 0.333,3.208c-0.167,2.25 -0.25,4 -0.25,5.25c0,12.583 2.042,22.125 6.083,28.292c4.125,6.333 10.833,9.625 19.833,9.792c0.333,0 0.917,-0.042 1.792,-0.042c1.208,0 3,0 5.292,0.125c0.875,0 1.667,0.042 2.375,0.042c3.167,0 3.833,-0.292 3.875,-0.333c0.5,-0.333 0.833,-0.792 1.083,-1.333c0.25,-0.583 0.375,-1.083 0.375,-1.5c0,-0.542 0,-1.292 -0.083,-2.333l0.125,-0Z"/>
</svg>